{"title":"The.Muppets.2011.DvDRip.XviD Feel-Free","uid":7061558,"size":1305065134,"categoryP":"video","categoryS":"movies","magnet":"?xt=urn:btih:d80eb42b01a51bf7a765577bb4dc25cef96b727d&amp;dn=The.Muppets.2011.DvDRip.XviD+Feel-Free&amp;tr=udp%3A%2F%2Ftracker.openbittorrent.com%3A80&amp;tr=udp%3A%2F%2Fopen.demonii.com%3A1337&amp;tr=udp%3A%2F%2Ftracker.coppersurfer.tk%3A6969&amp;tr=udp%3A%2F%2Fexodus.desync.com%3A6969","seeders":0,"leechers":0,"uploader":".BONE.","files":9,"time":1330364516,"description":"Genre:Comedy | Drama | Family\nLanguage:English &lt;a href=&quot;\nhttp://www.imdb.com/title/tt1204342/&quot; rel=&quot;nofollow&quot; target=&quot;_NEW&quot;&gt;\nhttp://www.imdb.com/title/tt1204342/&lt;/a&gt;\nSource:INSPiRAL DVD Thanks!\nEncoder:Tony\n\nFormat : AVI\nFormat/Info : Audio Video Interleave\nFile size : 1.21 GiB\nDuration : 1h 42mn\nOverall bit rate : 1 692 Kbps\n\nVideo\nID : 0\nFormat : MPEG-4 Visual\nFormat profile : Advanced Simple@L5\nFormat settings, BVOP : 1\nFormat settings, QPel : No\nFormat settings, GMC : No warppoints\nFormat settings, Matrix : Default (H.263)\nCodec ID : XVID\nCodec ID/Hint : XviD\nDuration : 1h 42mn\nBit rate : 1 458 Kbps\nWidth : 640 pixels\nHeight : 360 pixels\nDisplay aspect ratio : 16:9\nFrame rate : 25.000 fps\nColor space : YUV\nChroma subsampling : 4:2:0\nBit depth : 8 bits\nScan type : Progressive\nCompression mode : Lossy\nBits/(Pixel*Frame) : 0.253\nStream size : 1.05 GiB (86%)\nWriting library : XviD 1.2.1 (UTC 2008-12-04)\n\nAudio\nID : 1\nFormat : AC-3\nFormat/Info : Audio Coding 3\nMode extension : CM (complete main)\nCodec ID : 2000\nDuration : 1h 42mn\nBit rate mode : Constant\nBit rate : 224 Kbps\nChannel(s) : 2 channels\nChannel positions : Front: L R\nSampling rate : 48.0 KHz\nBit depth : 16 bits\nCompression mode : Lossy\nStream size : 165 MiB (13%)\nAlignment : Aligned on interleaves\nInterleave, duration : 40 ms (1.00 video frame)\nInterleave, preload duration : 512 ms\n\n\nPlot:\nWith the help of three fans, The Muppets must reunite to save their old theater from a greedy oil tycoon\n","torrent":{"xt":"urn:btih:d80eb42b01a51bf7a765577bb4dc25cef96b727d","amp;dn":"The.Muppets.2011.DvDRip.XviD+Feel-Free","amp;tr":["udp%3A%2F%2Ftracker.openbittorrent.com%3A80","udp%3A%2F%2Fopen.demonii.com%3A1337","udp%3A%2F%2Ftracker.coppersurfer.tk%3A6969","udp%3A%2F%2Fexodus.desync.com%3A6969"],"infoHash":"d80eb42b01a51bf7a765577bb4dc25cef96b727d","infoHashBuffer":{"type":"Buffer","data":[216,14,180,43,1,165,27,247,167,101,87,123,180,220,37,206,249,107,114,125]},"announce":[],"urlList":[]}}